<svg width="46" height="46" viewBox="0 0 46 46" fill="none" xmlns="http://www.w3.org/2000/svg">
<path d="M11.4563 12.9819C11.0047 12.0117 12.0116 11.0067 12.9817 11.4564L19.7284 14.5865C20.7534 15.0621 21.8698 15.3085 22.9999 15.3085C24.1299 15.3085 25.2463 15.0621 26.2714 14.5865L33.017 11.4574C33.9881 11.0048 34.9941 12.0108 34.5425 12.9828L31.4134 19.7285C30.9378 20.7536 30.6914 21.87 30.6914 23C30.6914 24.13 30.9378 25.2464 31.4134 26.2715L34.5425 33.0172C34.9941 33.9892 33.9881 34.9952 33.017 34.5426L26.2714 31.4135C25.2463 30.9379 24.1299 30.6915 22.9999 30.6915C21.8698 30.6915 20.7534 30.9379 19.7284 31.4135L12.9817 34.5436C12.0116 34.9933 11.0056 33.9892 11.4563 33.0181L14.5864 26.2715C15.0619 25.2464 15.3083 24.13 15.3083 23C15.3083 21.87 15.0619 20.7536 14.5864 19.7285L11.4563 12.9819ZM19.6437 16.8153C20.2414 18.1049 22.9999 21.5786 22.9999 23C22.9999 24.4214 18.8613 26.5529 17.1071 27.3673C18.3965 26.7687 21.5783 23 22.9999 23C24.4214 23 25.8267 28.9953 27.1161 29.5939L31.7386 31.7388L26.6286 29.6174C26.03 28.328 22.9999 24.4215 22.9999 23C22.9999 21.5785 25.8273 17.7027 26.9261 16.5313L31.7386 14.2612L26.9821 16.5359C26.5285 19.1109 24.4214 23 22.9999 23C21.5783 23 20.327 17.9813 19.6437 16.8153Z" fill="url(#paint0_linear_19_189)"/>
<defs>
<linearGradient id="paint0_linear_19_189" x1="12.0328" y1="34.3137" x2="34.3066" y2="11.3328" gradientUnits="userSpaceOnUse">
<stop stop-color="#5DFFF4"/>
<stop offset="0.514424" stop-color="#50A7FF"/>
<stop offset="1" stop-color="#FF72FA"/>
</linearGradient>
</defs>
</svg>
