<svg width="48" height="48" viewBox="0 0 48 48" fill="none" xmlns="http://www.w3.org/2000/svg">
<rect width="48" height="48" rx="24" fill="#1A1A19"/>
<path fill-rule="evenodd" clip-rule="evenodd" d="M34.7386 14.1734L35.7471 15.1174C36.5493 15.8686 37 16.8872 37 17.9493C37 19.0115 36.5493 20.0301 35.7471 20.7813L31.5035 24.7535L36.0424 29.002C36.3074 29.25 36.5176 29.5444 36.6611 29.8685C36.8045 30.1925 36.8783 30.5399 36.8783 30.8906C36.8783 31.2414 36.8045 31.5887 36.6611 31.9128C36.5176 32.2369 36.3074 32.5313 36.0424 32.7793L32.0084 36.5552C31.7435 36.8032 31.429 37 31.0828 37.1343C30.7366 37.2686 30.3655 37.3377 29.9908 37.3377C29.616 37.3377 29.245 37.2686 28.8988 37.1343C28.5526 37 28.238 36.8032 27.9731 36.5552L23.4342 32.3066L20.0636 35.463C19.7323 35.7732 19.3013 35.973 18.8369 36.0318L13.2453 36.7394C13.0272 36.7673 12.8053 36.7476 12.5967 36.6818C12.3882 36.616 12.1987 36.5059 12.0432 36.3602C11.8876 36.2145 11.7702 36.0371 11.7001 35.8418C11.63 35.6465 11.6092 35.4387 11.6391 35.2347L12.3951 30.0021C12.4579 29.5674 12.6714 29.1639 13.0028 28.8538L16.3749 25.6988L11.836 21.4502C11.571 21.2022 11.3607 20.9078 11.2173 20.5837C11.0738 20.2597 11 19.9124 11 19.5616C11 19.2108 11.0738 18.8635 11.2173 18.5394C11.3607 18.2154 11.571 17.9209 11.836 17.673L15.8699 13.8971C16.1348 13.649 16.4494 13.4522 16.7956 13.3179C17.1418 13.1836 17.5128 13.1145 17.8876 13.1145C18.2623 13.1145 18.6334 13.1836 18.9796 13.3179C19.3258 13.4522 19.6403 13.649 19.9053 13.8971L24.4441 18.1456L28.6863 14.1734C29.0837 13.8014 29.5555 13.5063 30.0747 13.305C30.5939 13.1036 31.1504 13 31.7125 13C32.2745 13 32.831 13.1036 33.3502 13.305C33.8695 13.5063 34.3412 13.8014 34.7386 14.1734ZM29.4865 26.6427L25.4526 30.4187L25.9561 30.8913L26.9646 29.9473C27.2207 29.7053 27.5659 29.5641 27.9297 29.5525C28.2934 29.541 28.648 29.66 28.9211 29.8852C29.1941 30.1104 29.3649 30.4248 29.3984 30.764C29.4319 31.1032 29.3257 31.4415 29.1014 31.7098L28.983 31.8353L27.9745 32.7793L29.9915 34.6672L34.0254 30.8913L29.4865 26.6427ZM27.6778 18.8933L15.1895 30.5829L14.7174 33.8581L18.2164 33.4148L30.7047 21.7266L27.6778 18.8933ZM17.8869 15.7863L13.8544 19.5609L15.8713 21.4502L16.8798 20.5062C17.1359 20.2642 17.4811 20.123 17.8449 20.1114C18.2086 20.0999 18.5632 20.2189 18.8363 20.4441C19.1093 20.6693 19.2801 20.9837 19.3136 21.3229C19.3471 21.662 19.2409 22.0004 19.0166 22.2687L18.8968 22.3942L17.8883 23.3382L18.3932 23.8095L22.4272 20.0336L17.8869 15.7863ZM30.7047 16.0627L29.6962 17.0067L32.7202 19.8386L33.7301 18.8947C33.9975 18.6443 34.1478 18.3047 34.1478 17.9507C34.1478 17.5966 33.9975 17.2571 33.7301 17.0067L32.7216 16.0627C32.4542 15.8124 32.0914 15.6718 31.7132 15.6718C31.3349 15.6718 30.9722 15.8124 30.7047 16.0627Z" fill="#31511E"/>
</svg>
